<svg width="51" height="47" viewBox="0 0 51 47" fill="none" xmlns="http://www.w3.org/2000/svg">
<path d="M46.8911 38.0108C43.2318 43.3782 36.0765 46.1 25.6274 46.1L25.6098 46.1C15.1763 46.097 8.03848 43.3742 4.39506 38.0075C1.34512 33.5146 0.953977 27.7875 0.953977 23.3C0.953978 18.8126 1.34512 13.0857 4.39506 8.59306C8.03848 3.22644 15.1763 0.503581 25.6101 0.500002L25.6306 0.500002C36.0795 0.499824 43.2318 3.22114 46.8908 8.58859C49.9604 13.0911 50.354 18.8157 50.354 23.3C50.354 27.7841 49.9604 33.5085 46.8911 38.0108Z" fill="url(#paint0_linear_762_598)"/>
<path d="M17.1538 36.1938L19.9398 34.5352C20.4772 35.473 20.9665 36.2661 22.1394 36.2661C23.2632 36.2661 23.9722 35.8355 23.9722 34.1503V22.7059H27.3936V34.1977C27.3936 37.6835 25.3166 39.2706 22.2864 39.2706C21.2152 39.3276 20.1515 39.0641 19.2354 38.5147C18.3194 37.9653 17.594 37.1559 17.1547 36.1929L17.1538 36.1938ZM29.2527 35.8321L32.0387 34.245C32.3485 34.8633 32.8293 35.383 33.4258 35.7445C34.0224 36.106 34.7105 36.2945 35.4111 36.2885C36.8291 36.2885 37.7324 35.591 37.7324 34.6291C37.7324 33.4752 36.8037 33.0661 35.2396 32.3902L34.3871 32.0337C31.9188 31.0003 30.2812 29.7017 30.2812 26.9607C30.2812 24.4359 32.2365 22.513 35.2912 22.513C36.281 22.4424 37.27 22.6602 38.1348 23.139C38.9996 23.6179 39.702 24.3367 40.1542 25.2058L37.4899 26.8893C37.3151 26.4579 37.0111 26.0889 36.6183 25.8313C36.2255 25.5737 35.7624 25.4397 35.2903 25.4469C35.0846 25.4264 34.8767 25.4483 34.6801 25.5113C34.4834 25.5743 34.3022 25.6769 34.1481 25.8127C33.994 25.9484 33.8704 26.1142 33.7851 26.2996C33.6998 26.485 33.6547 26.6858 33.6527 26.8893C33.6527 27.8994 34.2882 28.3075 35.7534 28.9327L36.6085 29.2935C39.517 30.5198 41.1538 31.7702 41.1538 34.5826C41.1538 37.6121 38.7345 39.2714 35.4847 39.2714C32.3074 39.2714 30.2549 37.7808 29.2527 35.833" fill="#E6D130"/>
<defs>
<linearGradient id="paint0_linear_762_598" x1="-10.8215" y1="-10.0092" x2="42.2704" y2="48.4747" gradientUnits="userSpaceOnUse">
<stop stop-color="#A39423"/>
<stop offset="1" stop-color="#202024"/>
</linearGradient>
</defs>
</svg>
