<svg width="50" height="47" viewBox="0 0 50 47" fill="none" xmlns="http://www.w3.org/2000/svg">
<path d="M46.1987 38.0108C42.5394 43.3782 35.3842 46.1 24.935 46.1L24.9175 46.1C14.4839 46.097 7.3461 43.3742 3.70268 38.0075C0.652736 33.5146 0.261594 27.7875 0.261595 23.3C0.261595 18.8126 0.652738 13.0857 3.70268 8.59306C7.3461 3.22644 14.4839 0.503581 24.9178 0.500002L24.9382 0.500002C35.3871 0.499824 42.5394 3.22114 46.1985 8.58859C49.268 13.0911 49.6616 18.8157 49.6616 23.3C49.6616 27.7841 49.268 33.5085 46.1987 38.0108Z" fill="url(#paint0_linear_762_3519)"/>
<path d="M26.1519 31.5883C25.9386 31.3997 25.716 31.2104 25.5034 31.0008C25.3335 31.1579 25.1742 31.3051 25.0056 31.4516C22.9015 33.2655 20.7326 34.0206 19.4469 33.2865C18.2032 32.584 17.8114 30.5085 18.3092 27.8975C18.3622 27.6144 18.426 27.3314 18.5004 27.0484C18.2772 26.9826 18.0645 26.9222 17.8519 26.8512C15.2045 25.9475 13.4615 24.48 13.4615 23.0118C13.4615 21.5969 15.0878 20.2233 17.6279 19.3427C17.9124 19.248 18.2124 19.154 18.5211 19.0699C18.45 18.7972 18.3938 18.535 18.3404 18.2813C17.8085 15.6308 18.1804 13.5133 19.4348 12.8002C20.7418 12.0451 22.9107 12.8528 25.0888 14.7501C25.2161 14.8651 25.3441 14.9913 25.4821 15.1168C25.684 14.9282 25.8753 14.7396 26.0773 14.572C28.1395 12.7976 30.1903 12.0556 31.4447 12.7687C32.7517 13.5021 33.135 15.7668 32.5505 18.5665C32.5185 18.7453 32.4793 18.9128 32.4338 19.0923C32.6998 19.1659 32.965 19.2493 33.2097 19.3335C35.8031 20.2141 37.4827 21.5877 37.4613 23.0342C37.4613 24.5122 35.6651 25.9699 32.9103 26.8716C32.7617 26.9136 32.613 26.9662 32.4637 27.0076C32.5277 27.2173 32.5697 27.4269 32.6123 27.6366C33.1649 30.3521 32.7396 32.5748 31.4539 33.3089C31.1163 33.4967 30.728 33.5924 30.3339 33.5849C29.1556 33.5829 27.6595 32.8659 26.1519 31.5883ZM28.2355 27.7404C27.6249 28.6182 26.9539 29.4587 26.2266 30.2568C26.4286 30.454 26.6305 30.6347 26.8325 30.8023C28.586 32.2909 30.2017 32.8469 30.9569 32.4171C31.1875 32.2335 31.3759 32.009 31.511 31.7569C31.6461 31.5049 31.7251 31.2303 31.7434 30.9495C31.8968 29.9091 31.8535 28.8519 31.6154 27.8252C31.5834 27.6366 31.5442 27.4479 31.4881 27.2488C30.4171 27.4805 29.3304 27.6447 28.2355 27.7404ZM19.3282 28.0762C18.893 30.3107 19.2115 31.9761 19.9682 32.4065C20.2362 32.5101 20.5256 32.5579 20.8159 32.5465C21.1062 32.5351 21.3902 32.4649 21.6478 32.3408C22.65 31.9515 23.5628 31.3892 24.3372 30.684C24.4965 30.5578 24.6451 30.4113 24.8051 30.2647C24.0618 29.4663 23.373 28.6259 22.7429 27.7483C21.6521 27.6641 20.5689 27.5104 19.501 27.2882C19.4348 27.5623 19.3815 27.8239 19.3282 28.0762ZM25.5148 29.5438C25.9827 29.0298 26.4499 28.464 26.9178 27.835C26.4499 27.8561 25.9614 27.8666 25.4721 27.8666C24.9829 27.8666 24.5263 27.8561 24.0691 27.835C24.547 28.4528 25.0255 29.0298 25.5141 29.5438H25.5148ZM23.2819 19.3111C22.878 19.8875 22.4848 20.4941 22.1129 21.1355C21.7409 21.7645 21.4017 22.4039 21.0924 23.0414C21.4117 23.6703 21.7516 24.3098 22.1235 24.9604C22.4954 25.5894 22.8887 26.2091 23.2926 26.7947C23.9937 26.8367 24.7276 26.8604 25.4714 26.8604C26.2152 26.8604 26.959 26.8394 27.6716 26.7875C28.0541 26.2111 28.4474 25.592 28.82 24.9525C29.1926 24.3131 29.5425 23.6631 29.8511 23.0342C29.5425 22.4157 29.1919 21.7763 28.82 21.1362C28.4481 20.4961 28.0549 19.8875 27.6616 19.3118C26.9505 19.2592 26.2159 19.2276 25.4721 19.2276C24.7283 19.2276 23.9944 19.2585 23.2819 19.3111ZM19.7747 26.3248C20.504 26.4787 21.2421 26.5944 21.9856 26.6711C21.7303 26.2729 21.4757 25.8739 21.2311 25.4546C20.9971 25.0459 20.7632 24.6371 20.5506 24.2283C20.2426 24.9407 19.9874 25.6446 19.7747 26.3248ZM29.7124 25.4441C29.4678 25.8634 29.2232 26.2617 28.9793 26.6501C29.7339 26.5627 30.4826 26.4368 31.2221 26.2729C30.9912 25.5651 30.7216 24.8687 30.4143 24.1862C30.191 24.6055 29.9571 25.0248 29.7124 25.4441ZM17.9572 20.3068C15.789 21.0619 14.482 22.1614 14.482 23.0223C14.5233 23.2993 14.6234 23.566 14.7766 23.8071C14.9297 24.0483 15.1329 24.2591 15.3744 24.4274C16.204 25.0722 17.1553 25.5697 18.1804 25.895C18.3717 25.9607 18.5737 26.0106 18.7756 26.0737C19.1021 25.0425 19.4961 24.0305 19.9554 23.0434C19.4952 22.0732 19.1047 21.076 18.7863 20.0584C18.4995 20.1293 18.2231 20.2121 17.9572 20.3068ZM30.9988 23.0223C31.4705 23.9969 31.8743 24.9983 32.2077 26.0205C32.3464 25.9784 32.4843 25.9364 32.6116 25.8943C34.9817 25.1188 36.4516 23.9339 36.4594 23.0112C36.4594 22.1515 35.0991 21.0396 32.8776 20.2851C32.6543 20.2121 32.4104 20.1385 32.1665 20.0649C31.8444 21.0723 31.4545 22.06 30.9988 23.0223ZM29.7025 20.6111C29.9471 21.0304 30.1811 21.4398 30.393 21.8486C30.6883 21.1805 30.9437 20.498 31.1581 19.804C30.4362 19.6419 29.7053 19.516 28.9686 19.4268C29.2239 19.8139 29.4678 20.2023 29.7018 20.6111H29.7025ZM19.7854 19.7955C19.9987 20.4665 20.2533 21.148 20.5506 21.8499C20.7639 21.4411 20.9971 21.0323 21.2311 20.6235C21.465 20.2148 21.7089 19.8165 21.9642 19.4281C21.1991 19.5208 20.4766 19.6463 19.7854 19.7955ZM26.7471 15.3396C26.5665 15.4967 26.3859 15.6643 26.2046 15.8325C26.9426 16.6208 27.621 17.4553 28.2348 18.3299C29.3164 18.4264 30.3891 18.5946 31.4447 18.8333C31.4874 18.6763 31.5158 18.5185 31.5514 18.3615C32.0491 15.9502 31.7426 14.1048 30.9348 13.6441C30.7575 13.5521 30.5564 13.5066 30.3531 13.5126C29.4849 13.5087 28.1523 14.1337 26.7471 15.3377V15.3396ZM19.9447 13.6703C19.1902 14.1002 18.8923 15.8194 19.3388 18.0841C19.3922 18.3253 19.4455 18.5658 19.5088 18.8176C20.5658 18.5877 21.6381 18.423 22.7187 18.3247C23.3347 17.4489 24.0167 16.6144 24.7596 15.8273C24.643 15.7116 24.515 15.6071 24.3983 15.502C22.9192 14.2092 21.497 13.5271 20.5683 13.5271C20.3501 13.5202 20.1341 13.5698 19.9447 13.6703ZM26.8957 18.2412C26.4574 17.655 25.9845 17.0916 25.4792 16.5535C25.0014 17.0668 24.5228 17.6333 24.057 18.2412C24.5249 18.2202 24.9921 18.2096 25.4707 18.2096C25.9493 18.2096 26.4286 18.2182 26.8965 18.2412H26.8957ZM23.3459 23.0644C23.3359 22.7949 23.3836 22.5263 23.4862 22.2739C23.5888 22.0215 23.7442 21.7903 23.9437 21.5935C24.1431 21.3968 24.3826 21.2383 24.6484 21.1272C24.9142 21.0161 25.2012 20.9546 25.4927 20.9462C26.0811 20.9648 26.6375 21.1981 27.0399 21.5952C27.4423 21.9923 27.658 22.5206 27.6396 23.0644C27.6586 23.6086 27.4431 24.1376 27.0404 24.5351C26.6378 24.9326 26.0809 25.1662 25.492 25.1845C25.2003 25.1761 24.9132 25.1146 24.6473 25.0034C24.3814 24.8922 24.1418 24.7335 23.9424 24.5365C23.743 24.3395 23.5877 24.1081 23.4853 23.8554C23.3829 23.6028 23.3356 23.334 23.3459 23.0644Z" fill="#2AC7E3"/>
<defs>
<linearGradient id="paint0_linear_762_3519" x1="0.272941" y1="0.62379" x2="45.6832" y2="49.8347" gradientUnits="userSpaceOnUse">
<stop stop-color="#226B7A"/>
<stop offset="1" stop-color="#121214"/>
</linearGradient>
</defs>
</svg>
